<svg 
 xmlns="http://www.w3.org/2000/svg"
 xmlns:xlink="http://www.w3.org/1999/xlink"
 width="163px" height="163px">
<path fill-rule="evenodd"  stroke-width="3px" stroke="rgb(149, 225, 211)" fill-opacity="0" fill="rgb(0, 0, 0)"
 d="M6.500,6.499 L156.500,6.499 L156.500,156.500 L6.500,156.500 L6.500,6.499 Z"/>
<path fill-rule="evenodd"  fill="rgb(149, 225, 211)"
 d="M110.500,87.498 L109.600,87.498 L109.600,87.498 L108.500,87.498 L108.500,92.499 L108.500,92.499 C108.500,92.704 108.479,92.908 108.439,93.103 C108.411,93.239 108.363,93.366 108.317,93.495 C108.297,93.553 108.287,93.612 108.264,93.665 C108.216,93.780 108.149,93.885 108.088,93.992 C108.053,94.052 108.027,94.118 107.988,94.176 C107.890,94.320 107.776,94.454 107.654,94.579 C107.642,94.592 107.634,94.608 107.621,94.619 C107.087,95.155 106.350,95.485 105.537,95.495 C105.525,95.495 105.513,95.497 105.500,95.497 L105.500,95.497 L105.500,95.497 C104.672,95.497 103.922,95.163 103.379,94.619 L96.257,87.498 L95.900,87.498 L95.900,87.498 L68.500,87.498 C66.843,87.498 65.500,86.155 65.500,84.498 L65.500,54.498 C65.500,52.841 66.843,51.497 68.500,51.497 L110.500,51.497 C112.157,51.497 113.500,52.841 113.500,54.498 L113.500,84.498 C113.500,86.155 112.157,87.498 110.500,87.498 ZM95.015,90.498 L101.341,96.825 L101.349,96.817 C102.428,97.854 103.886,98.499 105.500,98.499 L105.500,100.499 C105.500,102.155 104.157,103.498 102.500,103.498 L102.500,103.498 L81.400,103.498 L81.400,103.498 L74.500,103.498 L74.500,103.498 L71.500,103.498 L71.500,103.498 L70.743,103.498 L62.621,111.620 C62.078,112.162 61.328,112.499 60.500,112.499 L60.500,112.499 L60.500,112.499 C60.487,112.499 60.476,112.495 60.463,112.495 C59.649,112.484 58.913,112.154 58.379,111.620 C58.366,111.607 58.358,111.591 58.346,111.579 C58.224,111.454 58.110,111.320 58.012,111.175 C57.973,111.118 57.948,111.053 57.913,110.992 C57.851,110.884 57.784,110.780 57.736,110.666 C57.713,110.612 57.703,110.552 57.683,110.496 C57.637,110.366 57.589,110.240 57.561,110.102 C57.521,109.908 57.500,109.705 57.500,109.497 L57.500,109.497 L57.500,103.498 L57.000,103.498 L57.000,103.498 L53.496,103.498 C51.841,103.495 50.500,102.154 50.500,100.499 L50.500,66.499 C50.500,66.498 50.500,66.498 50.500,66.498 C50.500,64.840 51.843,63.498 53.500,63.498 L62.500,63.498 L62.500,84.498 C62.500,87.811 65.186,90.498 68.500,90.498 L95.015,90.498 Z"/>
</svg>